<svg fill="none" height="26" viewBox="0 0 26 26" width="26" xmlns="http://www.w3.org/2000/svg"><g fill="#4651f3"><path clip-rule="evenodd" d="m13.8676 12.1272c3.0496 3.0496 6.3692 4.8465 8.5964 4.8465.7694 0 1.4097-.2151 1.8619-.6674 1.7609-1.7619-.075-6.35518-4.1791-10.45926-4.1041-4.10407-8.6984-5.9410047-10.4593-4.17911-1.76089 1.76089.07504 6.35522 4.1801 10.45927zm-3.4728-9.75191c.2582-.25713.6584-.3852 1.1676-.3852 1.7669 0 4.8525 1.54078 7.877 4.56432 3.896 3.89599 5.3287 7.89399 4.1791 9.04459-1.1495 1.1526-5.1486-.2832-9.0445-4.1791-3.896-3.896-5.32874-7.89403-4.1792-9.04461z" fill-rule="evenodd"/><path d="m13.8676 12.1272.3536-.3535-.0001-.0001zm10.4583 4.1791.3536.3536.0001-.0001zm-4.1791-10.45926-.3536.35356zm-10.4593-4.17911.3536.35355.0001-.0001zm.7073.70736-.3528-.35424-.0009.00084zm9.0446 4.17912.3536-.35356-.0001-.00006zm4.1791 9.04459-.3537-.3534-.0003.0003zm-9.0445-4.1791.3535-.3536zm7.89 5.0538c-.9935 0-2.2934-.4063-3.7463-1.2164-1.4437-.8048-2.9996-1.9867-4.4965-3.4836l-.7071.7071c1.5526 1.5526 3.1813 2.794 4.7166 3.6499 1.5261.8508 2.9996 1.343 4.2333 1.343zm1.5084-.5209c-.3329.3329-.8304.5209-1.5084.5209v1c.8608 0 1.6439-.2422 2.2155-.8138zm-4.1792-9.7522c2.0175 2.01743 3.4576 4.1367 4.1782 5.9399.3606.9024.5317 1.7022.5216 2.3578-.01.651-.1963 1.13-.5207 1.4546l.7073.7069c.556-.5563.8005-1.3122.8133-2.1462.0127-.8295-.2016-1.7649-.5929-2.7441-.7832-1.95994-2.313-4.18936-4.3996-6.27601zm-9.752-4.17922c.3243-.32453.8031-.51094 1.454-.52096.6554-.01009 1.4553.16099 2.3577.52162 1.8034.72071 3.9229 2.16112 5.9403 4.17856l.7072-.70711c-2.0867-2.08664-4.3164-3.61673-6.2764-4.40004-.9793-.391376-1.9147-.605678-2.7442-.59291-.834.012836-1.58985.257515-2.14595.81393zm4.1799 9.75222c-2.0179-2.01739-3.4583-4.1369-4.179-5.94027-.36061-.90238-.5317-1.70228-.52166-2.35774.00996-.65097.19629-1.12978.52066-1.45411l-.70715-.70711c-.55612.55612-.80063 1.31194-.8134 2.14591-.01269.82948.2016 1.76483.59298 2.74415.78331 1.96004 2.31337 4.18977 4.40057 6.27637zm-2.6587-10.28351c-.5822 0-1.1336.14566-1.5204.53096l.7057.70848c.1295-.12896.3785-.23944.8147-.23944zm8.2305 4.7107c-1.5411-1.54059-3.1051-2.71103-4.5203-3.49919-1.4026-.78108-2.7037-1.21151-3.7102-1.21151v1c.7604 0 1.8855.33997 3.2236 1.08516 1.3254.73811 2.8165 1.84983 4.2999 3.33277zm4.1793 9.75161c.4309-.4312.5627-1.0672.5254-1.7322-.0379-.675-.2524-1.4636-.6172-2.3116-.7314-1.6998-2.1042-3.72451-4.0874-5.70775l-.7071.70711c1.9127 1.91273 3.2043 3.83504 3.8759 5.39584.3366.7824.5082 1.4525.5374 1.9725.0297.53-.0904.8252-.2344.9693zm-9.7518-4.179c1.9832 1.9832 4.0082 3.3567 5.708 4.0885.8481.3651 1.6368.5797 2.3119.6174.6651.0372 1.3013-.0952 1.7322-.5272l-.708-.7062c-.1438.1442-.4386.2646-.9684.235-.5198-.0291-1.1899-.2007-1.9723-.5375-1.561-.672-3.4835-1.9643-5.3963-3.8771zm-4.1793-9.75151c-.4308.4312-.56266 1.06723-.52534 1.73216.03788.67501.25239 1.46362.61724 2.31163.7314 1.69977 2.1042 3.7245 4.0874 5.70772l.7071-.7071c-1.9127-1.91271-3.2043-3.83498-3.8759-5.39586-.3366-.78232-.5082-1.45245-.5374-1.97242-.0298-.53005.0904-.82525.2343-.96933z"/><g stroke="#4651f3"><path d="m4.09166 24.7926c.34317.1471.62631.2021.85643.2021.3942 0 .63332-.1611.76239-.2901.18009-.1791.41021-.5643.2071-1.2717l15.78302-6.4793c.2551-.105.3772-.3972.2721-.6523-.104-.2551-.3992-.3782-.6523-.2721l-4.8204-2.0292-5.5-5.5-1.03437-3.82457c.10507-.25613-.01701-.54828-.27213-.65334-.25713-.10305-.54728.01701-.65334.27214l-6.49629 15.77697c-.69735-.1951-1.07654.033-1.25463.2121-.20411.2041-.487249.6864-.08705 1.6199.23512.5482.66134 1.1475 1.20161 1.6878.54028.5403 1.13958.9665 1.68786 1.2016z"/><path d="m11.9775 24.7046c-.5523 0-1.0816-.3062-1.3427-.8284l-1.07954-2.1601c-.12406-.2472-.02301-.5473.22412-.6714.24712-.123.54832-.023.67132.2241l1.0796 2.1601c.118.2362.4022.3392.6423.2352l5.1656-2.2132c.1271-.055.2241-.156.2711-.2871.0471-.1301.0401-.2701-.022-.3942l-1.0275-2.055c-.1241-.2472-.023-.5473.2241-.6714.2471-.122.5473-.024.6714.2241l1.0275 2.0551c.1841.3672.2081.7994.067 1.1856-.1421.3862-.4392.7003-.8174.8624l-5.1666 2.2131c-.1911.0821-.3912.1211-.5883.1211z"/></g></g></svg>